<?xml version="1.0" encoding="utf-8"?>
<!-- Generator: Adobe Illustrator 14.0.0, SVG Export Plug-In . SVG Version: 6.00 Build 43363)  -->
<!DOCTYPE svg PUBLIC "-//W3C//DTD SVG 1.1//EN" "http://www.w3.org/Graphics/SVG/1.1/DTD/svg11.dtd">
<svg version="1.1" id="Layer_1" xmlns="http://www.w3.org/2000/svg" xmlns:xlink="http://www.w3.org/1999/xlink" x="0px" y="0px"
	 width="65.666px" height="65.666px" viewBox="0 0 65.666 65.666" enable-background="new 0 0 65.666 65.666" xml:space="preserve">
<rect fill="#F5539C" width="65.666" height="65.666"/>
<g id="JxF80v.tif">
	<g>
		<g>
			<path fill-rule="evenodd" clip-rule="evenodd" fill="#FFFFFF" d="M56.73,23.486c-3.28,1.951-6.565,4.193-9.795,6.01
				c0-1.299,0-2.597,0-3.896c-5.035-0.477-8.402,0.657-10.797,3.006c-1.178,1.154-2.039,2.536-2.95,4.007
				c-2.671,4.314-5.012,8.885-9.796,11.075c-3.146,1.441-7.385,1.655-12.467,1.447c0-1.483,0-2.968,0-4.452
				c2.564-0.091,4.862,0.148,6.901-0.056c6.353-0.636,8.421-5.35,11.132-9.685c1.844-2.949,3.58-5.632,6.456-7.457
				c2.81-1.784,6.336-2.669,11.464-2.394c0.131-1.095,0.02-2.431,0.057-3.618C50.272,19.407,53.556,21.392,56.73,23.486z"/>
			<path fill-rule="evenodd" clip-rule="evenodd" fill="#FFFFFF" d="M10.98,21.093c3.873-0.028,7.513-0.182,10.353,0.724
				c2.859,0.911,5.078,2.31,6.79,4.285c-0.869,1.227-1.635,2.559-2.448,3.84c-1.596-1.9-3.63-3.48-6.567-4.118
				c-2.316-0.503-5.104-0.194-8.182-0.278C10.963,24.079,10.852,22.466,10.98,21.093z"/>
			<path fill-rule="evenodd" clip-rule="evenodd" fill="#FFFFFF" d="M34.858,36.23c2.327,3.183,6.097,4.924,12.077,4.453
				c0-1.336,0-2.672,0-4.008c3.277,2.047,6.634,4.016,9.795,6.178c-3.305,1.928-6.433,4.031-9.795,5.9c0-1.207,0-2.412,0-3.618
				c-6.953,0.46-11.434-1.553-14.527-4.953C33.186,38.826,34.047,37.554,34.858,36.23z"/>
		</g>
	</g>
</g>
</svg>
